<svg width="1778" height="450" viewBox="0 0 1778 450" fill="none" xmlns="http://www.w3.org/2000/svg">
<g filter="url(#filter0_d_208_547)">
<path fill-rule="evenodd" clip-rule="evenodd" d="M173.599 57.719C149.969 64.9799 128.145 77.1647 109.565 93.471L128.105 114.596L147.025 132.196C159.454 121.752 173.862 113.906 189.397 109.133C205.764 104.103 223.012 102.599 240.003 104.718C256.994 106.837 273.343 112.532 287.974 121.428C302.604 130.324 315.184 142.218 324.885 156.328C334.585 170.438 341.186 186.442 344.254 203.288C347.321 220.134 346.784 237.438 342.678 254.062C338.573 270.685 330.993 286.25 320.436 299.731C310.424 312.518 297.95 323.155 283.761 331.019L324.527 368.942C338.989 358.943 351.895 346.798 362.784 332.891C378.025 313.428 388.969 290.957 394.896 266.957C400.823 242.958 401.598 217.975 397.17 193.654C392.742 169.333 383.211 146.227 369.206 125.856C355.201 105.486 337.039 88.3132 315.917 75.4703C294.794 62.6274 271.19 54.4053 246.66 51.3456C239.459 50.4475 232.226 50.0001 225.003 50C225.001 50 224.999 50 224.997 50C207.616 50.0003 190.291 52.5901 173.599 57.719ZM50 225.003C50 259.224 60.0388 292.793 79.0039 321.489C100.187 353.54 131.328 377.73 167.623 390.327C184.338 396.128 201.718 399.321 219.169 399.903C192.833 386.298 173.317 361.335 167.102 331.492C149.751 322.059 134.875 308.476 123.876 291.833C109.203 269.633 102.244 243.221 104.073 216.673C105.791 191.724 115.18 167.957 130.893 148.602L91.4501 111.91C67.3714 140.344 52.9772 175.749 50.4136 212.978C50.1373 216.991 50 221.001 50 225.003ZM149.012 209.276C149.004 209.724 149 210.173 149 210.622H149.096C150.148 222.029 159.744 230.962 171.426 230.962C183.108 230.962 192.704 222.029 193.756 210.622H193.957C193.957 205.002 195.502 199.49 198.422 194.688C201.342 189.886 205.526 185.979 210.516 183.394C215.507 180.809 221.111 179.645 226.718 180.029C232.325 180.413 237.719 182.331 242.31 185.573C246.901 188.815 250.512 193.256 252.751 198.411C254.989 203.566 255.767 209.237 255 214.805C254.233 220.373 251.951 225.622 248.403 229.981C245.566 233.466 242.007 236.274 237.987 238.221L237.944 238.006C228.46 239.874 219.81 245.4 213.67 252.866C207.531 260.333 204.283 269.276 204.283 278.943L203.24 278.943V290.416H246.005V280.719C258.762 275.904 275.314 268.136 283.269 258.363C292.019 247.614 297.647 234.668 299.537 220.938C301.428 207.207 299.509 193.222 293.99 180.508C288.47 167.795 279.563 156.843 268.242 148.848C256.92 140.854 243.619 136.124 229.792 135.177C215.965 134.229 202.143 137.1 189.836 143.476C177.53 149.851 167.212 159.486 160.011 171.327C153.61 181.852 149.889 193.76 149.141 206.009C149.048 206.838 149 207.682 149 208.536C149 208.784 149.004 209.03 149.012 209.276ZM249.133 329.531C249.133 342.493 238.626 353 225.665 353C212.703 353 202.196 342.493 202.196 329.531C202.196 316.57 212.703 306.062 225.665 306.062C238.626 306.062 249.133 316.57 249.133 329.531Z" fill="white"/>
<path d="M534.708 252.29H567.378L583.802 273.419L599.96 292.24L630.411 330.415H594.544L573.593 304.669L562.85 289.399L534.708 252.29ZM633.163 224.591C633.163 244.418 629.405 261.286 621.888 275.195C614.431 289.103 604.251 299.727 591.348 307.066C578.505 314.346 564.064 317.986 548.024 317.986C531.867 317.986 517.366 314.316 504.523 306.977C491.68 299.638 481.529 289.014 474.072 275.106C466.615 261.197 462.886 244.359 462.886 224.591C462.886 204.764 466.615 187.896 474.072 173.987C481.529 160.079 491.68 149.484 504.523 142.205C517.366 134.866 531.867 131.196 548.024 131.196C564.064 131.196 578.505 134.866 591.348 142.205C604.251 149.484 614.431 160.079 621.888 173.987C629.405 187.896 633.163 204.764 633.163 224.591ZM594.189 224.591C594.189 211.748 592.266 200.917 588.419 192.098C584.631 183.279 579.274 176.591 572.35 172.034C565.425 167.477 557.316 165.198 548.024 165.198C538.732 165.198 530.624 167.477 523.699 172.034C516.774 176.591 511.388 183.279 507.541 192.098C503.753 200.917 501.86 211.748 501.86 224.591C501.86 237.434 503.753 248.265 507.541 257.084C511.388 265.902 516.774 272.59 523.699 277.148C530.624 281.705 538.732 283.984 548.024 283.984C557.316 283.984 565.425 281.705 572.35 277.148C579.274 272.59 584.631 265.902 588.419 257.084C592.266 248.265 594.189 237.434 594.189 224.591ZM798.943 133.682H837.384V251.757C837.384 265.015 834.218 276.615 827.885 286.558C821.611 296.501 812.822 304.255 801.518 309.818C790.213 315.322 777.045 318.075 762.011 318.075C746.919 318.075 733.721 315.322 722.416 309.818C711.112 304.255 702.323 296.501 696.049 286.558C689.775 276.615 686.638 265.015 686.638 251.757V133.682H725.08V248.472C725.08 255.397 726.589 261.552 729.607 266.938C732.685 272.324 737.005 276.556 742.569 279.634C748.132 282.711 754.613 284.25 762.011 284.25C769.469 284.25 775.95 282.711 781.454 279.634C787.017 276.556 791.308 272.324 794.327 266.938C797.404 261.552 798.943 255.397 798.943 248.472V133.682ZM894.012 315.5V133.682H1016.53V165.376H932.453V208.7H1010.22V240.393H932.453V283.806H1016.88V315.5H894.012ZM1170.72 185.972C1170.01 178.811 1166.96 173.247 1161.58 169.282C1156.19 165.317 1148.88 163.334 1139.65 163.334C1133.37 163.334 1128.08 164.222 1123.76 165.997C1119.44 167.714 1116.12 170.111 1113.81 173.188C1111.56 176.266 1110.44 179.758 1110.44 183.664C1110.32 186.919 1111 189.76 1112.48 192.187C1114.02 194.613 1116.12 196.714 1118.79 198.49C1121.45 200.206 1124.53 201.716 1128.02 203.018C1131.51 204.261 1135.24 205.326 1139.2 206.214L1155.54 210.12C1163.47 211.896 1170.75 214.263 1177.38 217.222C1184.01 220.182 1189.75 223.821 1194.6 228.142C1199.46 232.463 1203.21 237.553 1205.88 243.412C1208.6 249.271 1209.99 255.989 1210.05 263.565C1209.99 274.692 1207.15 284.339 1201.53 292.506C1195.96 300.615 1187.91 306.918 1177.38 311.416C1166.9 315.855 1154.27 318.075 1139.47 318.075C1124.79 318.075 1112.01 315.826 1101.12 311.327C1090.29 306.829 1081.82 300.171 1075.73 291.352C1069.69 282.474 1066.52 271.496 1066.23 258.415H1103.43C1103.84 264.512 1105.59 269.602 1108.66 273.685C1111.8 277.71 1115.97 280.758 1121.18 282.83C1126.45 284.842 1132.4 285.848 1139.03 285.848C1145.54 285.848 1151.19 284.901 1155.98 283.007C1160.84 281.113 1164.59 278.479 1167.26 275.106C1169.92 271.732 1171.25 267.856 1171.25 263.476C1171.25 259.392 1170.04 255.959 1167.61 253.178C1165.25 250.396 1161.75 248.028 1157.14 246.075C1152.58 244.122 1146.99 242.347 1140.36 240.749L1120.56 235.777C1105.23 232.048 1093.13 226.219 1084.25 218.288C1075.37 210.357 1070.96 199.674 1071.02 186.239C1070.96 175.23 1073.89 165.612 1079.81 157.386C1085.79 149.159 1093.99 142.737 1104.4 138.121C1114.82 133.504 1126.66 131.196 1139.91 131.196C1153.41 131.196 1165.19 133.504 1175.25 138.121C1185.37 142.737 1193.24 149.159 1198.86 157.386C1204.49 165.612 1207.39 175.141 1207.56 185.972H1170.72ZM1253.98 165.376V133.682H1403.31V165.376H1347.64V315.5H1309.65V165.376H1253.98ZM1491.34 133.682V315.5H1452.9V133.682H1491.34ZM1715.05 224.591C1715.05 244.418 1711.29 261.286 1703.77 275.195C1696.32 289.103 1686.14 299.727 1673.23 307.066C1660.39 314.346 1645.95 317.986 1629.91 317.986C1613.75 317.986 1599.25 314.316 1586.41 306.977C1573.56 299.638 1563.41 289.014 1555.96 275.106C1548.5 261.197 1544.77 244.359 1544.77 224.591C1544.77 204.764 1548.5 187.896 1555.96 173.987C1563.41 160.079 1573.56 149.484 1586.41 142.205C1599.25 134.866 1613.75 131.196 1629.91 131.196C1645.95 131.196 1660.39 134.866 1673.23 142.205C1686.14 149.484 1696.32 160.079 1703.77 173.987C1711.29 187.896 1715.05 204.764 1715.05 224.591ZM1676.07 224.591C1676.07 211.748 1674.15 200.917 1670.3 192.098C1666.52 183.279 1661.16 176.591 1654.23 172.034C1647.31 167.477 1639.2 165.198 1629.91 165.198C1620.62 165.198 1612.51 167.477 1605.58 172.034C1598.66 176.591 1593.27 183.279 1589.43 192.098C1585.64 200.917 1583.74 211.748 1583.74 224.591C1583.74 237.434 1585.64 248.265 1589.43 257.084C1593.27 265.902 1598.66 272.59 1605.58 277.148C1612.51 281.705 1620.62 283.984 1629.91 283.984C1639.2 283.984 1647.31 281.705 1654.23 277.148C1661.16 272.59 1666.52 265.902 1670.3 257.084C1674.15 248.265 1676.07 237.434 1676.07 224.591Z" fill="white"/>
</g>
<defs>
<filter id="filter0_d_208_547" x="0" y="0" width="1778" height="461" filterUnits="userSpaceOnUse" color-interpolation-filters="sRGB">
<feFlood flood-opacity="0" result="BackgroundImageFix"/>
<feColorMatrix in="SourceAlpha" type="matrix" values="0 0 0 0 0 0 0 0 0 0 0 0 0 0 0 0 0 0 127 0" result="hardAlpha"/>
<feOffset/>
<feGaussianBlur stdDeviation="25"/>
<feComposite in2="hardAlpha" operator="out"/>
<feColorMatrix type="matrix" values="0 0 0 0 0 0 0 0 0 0 0 0 0 0 0 0 0 0 0.25 0"/>
<feBlend mode="normal" in2="BackgroundImageFix" result="effect1_dropShadow_208_547"/>
<feBlend mode="normal" in="SourceGraphic" in2="effect1_dropShadow_208_547" result="shape"/>
</filter>
</defs>
</svg>
